<?xml version="1.0" encoding="utf-8"?>
<!-- Generator: Adobe Illustrator 25.4.1, SVG Export Plug-In . SVG Version: 6.00 Build 0)  -->
<svg version="1.1" xmlns="http://www.w3.org/2000/svg" xmlns:xlink="http://www.w3.org/1999/xlink" x="0px" y="0px"
	 viewBox="0 0 612 792" style="enable-background:new 0 0 612 792;" xml:space="preserve">
<style type="text/css">
	.st0{stroke:#FBC715;stroke-width:3;stroke-miterlimit:10;}
	.st1{display:none;}
	.st2{display:inline;}
</style>
<g id="Layer_1">
	<g>
		<path class="st0" d="M470.82,464.16c11.15-27.75,23.17-54.85,36.06-81.29c12.89-26.45,24.92-51.03,36.06-73.76
			c11.15-22.73,20.33-42.29,27.54-58.69c7.21-16.39,10.82-28.3,10.82-35.73c0-5.67-1.87-10.38-5.58-14.1
			c-3.71-3.7-7.97-5.57-12.78-5.57c-7.86,0-16.5,5.57-25.9,16.72c-9.4,11.14-19.23,26.12-29.5,44.92
			c-10.28,18.79-20.65,40.22-31.14,64.25c-10.49,24.04-20.98,49.07-31.47,75.07c-10.49,26.01-20.56,51.47-30.17,76.38
			c-13.99,36.29-29.62,67.43-46.88,93.43c-17.27,26.01-34.09,45.89-50.48,59.67c-16.39,13.76-30.48,20.65-42.29,20.65
			c-7,0-12.24-2.51-15.73-7.55c-3.51-5.01-5.25-11.68-5.25-20c0-10.04,2.19-21.96,6.55-35.72c4.37-13.77,10.6-28.08,18.69-42.95
			c7.19-13.21,15.5-25.56,24.94-37.05c30.35-9.2,100.4-14.45,110.45-47.86c0.87-2.84,1.32-5.34,1.32-7.53
			c0-7.43-2.85-12.79-8.53-16.07c-5.68-3.28-13.55-4.91-23.6-4.91c-18.36,0-36.5,4.59-54.42,13.77
			c-17.93,9.17-34.86,21.2-50.81,36.05c-10.4,9.69-19.97,20.03-28.69,31.02c-3.68,0.56-7.51,0.84-11.49,0.84
			c-2.62,0-4.7-0.1-6.23-0.32c-1.53-0.21-3.39-0.33-5.57-0.33c6.56-13.98,11.47-28.08,14.75-42.29c3.28-14.2,4.92-27.64,4.92-40.32
			c0-22.29-4.59-38.79-13.77-49.5c-9.18-10.71-20.76-16.06-34.75-16.06c-16.62,0-30.71,6.55-42.29,19.66
			c-11.59,13.12-17.37,30.39-17.37,51.79c0,17.49,4.15,34.1,12.45,49.84c8.31,15.73,20.55,27.98,36.72,36.72
			c-8.3,14.86-19.01,27.53-32.12,38.02c-13.12,10.49-25.36,15.74-36.72,15.74c-12.69,0-21.54-6.23-26.55-18.69
			c-5.03-12.46-7.55-27.42-7.55-44.91c0-17.92,1.86-35.84,5.58-53.76c3.71-17.92,7.87-33.87,12.46-47.87
			c4.59-13.99,8.41-23.81,11.47-29.5c16.17-9.18,31.8-21.64,46.88-37.37c15.08-15.74,28.95-33.21,41.63-52.45
			c12.67-19.23,23.82-38.69,33.44-58.35c9.61-19.68,17.05-38.25,22.29-55.74c5.25-17.48,7.87-32.34,7.87-44.58
			c-0.44-10.06-2.85-20.1-7.21-30.16c-4.38-10.05-10.93-15.08-19.67-15.08c-10.06,0-22.08,7.44-36.06,22.29
			c-14,14.87-28.85,34.87-44.59,60c-15.73,25.13-31.14,53.1-46.22,83.92c-15.08,30.81-28.75,62.28-40.98,94.41
			c-12.24,32.13-22.08,62.84-29.5,92.12c-7.43,29.28-11.15,54.64-11.15,76.06c0,27.1,6.46,48.4,19.34,63.92
			c12.89,15.5,31.8,23.27,56.71,23.27c24.48,0,45.79-6.88,63.93-20.65c18.14-13.76,33.33-30.49,45.57-50.15
			c2.18,0.43,4.47,0.65,6.89,0.65h6.88c1.61,0,3.21-0.03,4.79-0.08c-11.11,16.95-19.97,33.89-26.57,50.83
			c-6.99,17.93-10.49,34.09-10.49,48.52c0,13.55,2.95,24.7,8.85,33.44c5.9,8.74,13.11,15.18,21.63,19.34
			c8.52,4.14,16.94,6.22,25.25,6.22c13.11,0,26.88-4.37,41.3-13.11c14.43-8.73,29.18-20.86,44.26-36.39
			c10.46-10.76,20.55-22.52,30.28-35.29c3.01-3.95,9.11-1.67,9.11,2.98c0,0.27-0.02,0.55-0.06,0.84
			c-1.09,7.21-1.63,14.32-1.63,21.31c0,15.3,3.49,28.63,10.49,40c6.99,11.36,19.44,17.04,37.37,17.04c16.61,0,33.44-5.13,50.48-15.4
			c17.05-10.27,33-24.59,47.86-42.95c14.15-17.48,25.93-37.53,35.33-60.16c0.84-2.04,0.25-4.4-1.44-5.82l-4.72-3.97
			c-2.48-2.09-6.27-1.33-7.76,1.56c-9.3,18.12-19.49,33.82-30.58,47.08c-12.24,14.65-24.26,25.68-36.06,33.11
			c-11.8,7.44-22.52,11.15-32.13,11.15c-4.82,0-8.19-1.85-10.16-5.58c-1.97-3.7-2.95-10.81-2.95-21.3c0-23.6,3.6-48.85,10.81-75.73
			C450.5,519.24,459.67,491.93,470.82,464.16z M324.42,458.94c5.98-3.96,14.69-7.84,24.72-10.71c19.83-5.68,37.4-5.27,39.57,0.88
			c0.02,0.07,0.05,0.14,0.07,0.22c0.51,1.78-0.29,3.84-2.15,6c-4.75,5.54-16.46,11.78-30.91,15.91c-8.44,2.42-16.48,3.73-23.08,3.97
			c-9.1,0.33-15.51-1.39-16.56-5.07C315.17,466.96,318.42,462.91,324.42,458.94z M153.31,267.86c10.49-22.07,21.3-42.18,32.45-60.32
			c11.15-18.13,21.2-32.88,30.16-44.26c8.96-11.36,15.41-17.7,19.34-19.01v3.93c-0.88,7-3.5,16.29-7.87,27.87
			c-4.37,11.59-9.94,24.48-16.71,38.68c-6.78,14.22-14.65,28.63-23.61,43.27c-8.96,14.66-18.58,28.63-28.85,41.96
			c-10.27,13.34-20.87,25.03-31.79,35.08C133.85,312.34,142.82,289.93,153.31,267.86z M207.4,469.15
			c-1.97,8.96-4.92,17.81-8.85,26.55c-10.93-7.43-18.36-17.27-22.29-29.51c-3.94-12.23-5.9-22.94-5.9-32.12
			c0-10.93,2.07-20.33,6.22-28.2c4.15-7.87,9.07-11.8,14.76-11.8c5.24,0,9.72,3.72,13.44,11.14c3.7,7.44,5.57,19.02,5.57,34.76
			C210.35,450.46,209.36,460.19,207.4,469.15z"/>
	</g>
</g>
<g id="Layer_2" class="st1">
	<g class="st2">
		<g>
			<path d="M-311.74,256.56v-1.32l3.06-0.66c1.4-0.32,2.29-0.68,2.67-1.08c0.38-0.4,0.57-1.22,0.57-2.46V221.7
				c0-1.28-0.19-2.12-0.57-2.52c-0.38-0.4-1.27-0.74-2.67-1.02l-3.06-0.66v-1.32h22.2c2.76,0,5.16,0.39,7.2,1.17
				s3.63,1.87,4.77,3.27c1.14,1.4,1.71,3.04,1.71,4.92c0,2.52-0.85,4.46-2.55,5.82c-1.7,1.36-3.95,2.24-6.75,2.64v0.12
				c1.96,0.12,3.82,0.6,5.58,1.44c1.76,0.84,3.19,2.01,4.29,3.51c1.1,1.5,1.65,3.27,1.65,5.31c0,3-0.78,5.39-2.34,7.17
				c-1.56,1.78-3.63,3.06-6.21,3.84s-5.43,1.17-8.55,1.17H-311.74z M-297.04,233.4h5.34c2.12,0,3.77-0.78,4.95-2.34
				c1.18-1.56,1.77-3.38,1.77-5.46c0-2.24-0.71-4.04-2.13-5.4c-1.42-1.36-3.39-2.04-5.91-2.04h-4.02V233.4z M-293.5,254.58h1.62
				c1.8,0,3.34-0.43,4.62-1.29c1.28-0.86,2.27-2.06,2.97-3.6c0.7-1.54,1.05-3.31,1.05-5.31c0-1.92-0.3-3.55-0.9-4.89
				c-0.6-1.34-1.55-2.36-2.85-3.06c-1.3-0.7-3.01-1.05-5.13-1.05h-4.92v15.9c0,1.32,0.25,2.2,0.75,2.64
				C-295.79,254.37-294.86,254.58-293.5,254.58z"/>
			<path d="M-268.84,256.56v-1.32l3.06-0.66c1.4-0.32,2.29-0.68,2.67-1.08c0.38-0.4,0.57-1.22,0.57-2.46V221.7
				c0-1.28-0.19-2.12-0.57-2.52c-0.38-0.4-1.27-0.74-2.67-1.02l-3.06-0.66v-1.32h21v1.32l-3.06,0.66c-1.36,0.28-2.24,0.62-2.64,1.02
				c-0.4,0.4-0.6,1.24-0.6,2.52v29.34c0,1.24,0.2,2.06,0.6,2.46c0.4,0.4,1.28,0.76,2.64,1.08l3.06,0.66v1.32H-268.84z"/>
			<path d="M-244.24,256.56v-1.32l3.06-0.66c1.4-0.32,2.29-0.68,2.67-1.08c0.38-0.4,0.57-1.22,0.57-2.46V221.7
				c0-1.28-0.19-2.12-0.57-2.52c-0.38-0.4-1.27-0.74-2.67-1.02l-3.06-0.66v-1.32h21v1.32l-3.06,0.66c-1.36,0.28-2.24,0.62-2.64,1.02
				c-0.4,0.4-0.6,1.24-0.6,2.52v29.34c0,1.24,0.2,2.06,0.6,2.46c0.4,0.4,1.28,0.76,2.64,1.08l3.06,0.66v1.32H-244.24z
				 M-230.62,236.1v-1.98h23.04v1.98H-230.62z M-216.28,256.56v-1.32l3.06-0.66c1.4-0.32,2.29-0.68,2.67-1.08
				c0.38-0.4,0.57-1.22,0.57-2.46V221.7c0-1.28-0.19-2.12-0.57-2.52c-0.38-0.4-1.27-0.74-2.67-1.02l-3.06-0.66v-1.32h21v1.32
				l-3.06,0.66c-1.36,0.28-2.24,0.62-2.64,1.02c-0.4,0.4-0.6,1.24-0.6,2.52v29.34c0,1.24,0.2,2.06,0.6,2.46
				c0.4,0.4,1.28,0.76,2.64,1.08l3.06,0.66v1.32H-216.28z"/>
			<path d="M-191.68,256.56v-1.32l3.06-0.66c1.4-0.32,2.29-0.68,2.67-1.08c0.38-0.4,0.57-1.22,0.57-2.46V221.7
				c0-1.28-0.19-2.12-0.57-2.52c-0.38-0.4-1.27-0.74-2.67-1.02l-3.06-0.66v-1.32h34.38c-0.12,0.56-0.2,1.11-0.24,1.65
				c-0.04,0.54-0.06,1.09-0.06,1.65c0,1.24,0.1,2.45,0.3,3.63c0.2,1.18,0.4,2.41,0.6,3.69h-1.32c-0.64-1.6-1.48-3.05-2.52-4.35
				c-1.04-1.3-2.26-2.34-3.66-3.12c-1.4-0.78-3-1.17-4.8-1.17h-7.98v16.08h7.68c2,0,3.43-0.4,4.29-1.2c0.86-0.8,1.41-1.92,1.65-3.36
				l0.48-2.76h1.32v16.62h-1.32l-0.54-2.88c-0.24-1.4-0.78-2.49-1.62-3.27s-2.22-1.17-4.14-1.17h-7.8v13.2
				c0,1.16,0.06,2.13,0.18,2.91c0.12,0.78,0.47,1.35,1.05,1.71c0.58,0.36,1.55,0.54,2.91,0.54h4.44c1.44,0,2.72-0.21,3.84-0.63
				c1.12-0.42,2.14-1.02,3.06-1.8c0.92-0.78,1.76-1.71,2.52-2.79l2.58-3.6h1.32c-0.4,1.76-0.75,3.54-1.05,5.34
				c-0.3,1.8-0.45,3.62-0.45,5.46H-191.68z"/>
			<path d="M-151.48,256.56v-1.32l3.06-0.66c1.4-0.32,2.29-0.68,2.67-1.08c0.38-0.4,0.57-1.22,0.57-2.46V221.7
				c0-1.28-0.19-2.12-0.57-2.52c-0.38-0.4-1.27-0.74-2.67-1.02l-3.06-0.66v-1.32h34.32c-0.12,0.56-0.2,1.11-0.24,1.65
				c-0.04,0.54-0.06,1.09-0.06,1.65c0,1.24,0.1,2.45,0.3,3.63c0.2,1.18,0.4,2.41,0.6,3.69h-1.32c-0.48-1.2-1.08-2.32-1.8-3.36
				c-0.72-1.04-1.53-1.95-2.43-2.73c-0.9-0.78-1.92-1.4-3.06-1.86c-1.14-0.46-2.37-0.69-3.69-0.69h-7.92v17.28h7.68
				c1.36,0,2.44-0.18,3.24-0.54c0.8-0.36,1.41-0.88,1.83-1.56c0.42-0.68,0.71-1.5,0.87-2.46l0.48-2.76h1.32v16.62h-1.32l-0.54-2.88
				c-0.16-0.96-0.45-1.77-0.87-2.43s-1.02-1.16-1.8-1.5c-0.78-0.34-1.81-0.51-3.09-0.51h-7.8v13.62c0,1.24,0.2,2.07,0.6,2.49
				c0.4,0.42,1.28,0.77,2.64,1.05l3.48,0.66v1.32H-151.48z"/>
			<path d="M-88.36,257.16c-3.48,0-6.67-0.52-9.57-1.56c-2.9-1.04-5.4-2.49-7.5-4.35c-2.1-1.86-3.73-4.02-4.89-6.48
				c-1.16-2.46-1.74-5.11-1.74-7.95c0-3.04,0.58-5.85,1.74-8.43c1.16-2.58,2.8-4.83,4.92-6.75c2.12-1.92,4.61-3.41,7.47-4.47
				c2.86-1.06,5.97-1.59,9.33-1.59c2.28,0,4.07,0.17,5.37,0.51c1.3,0.34,2.39,0.71,3.27,1.11c0.72,0.32,1.41,0.61,2.07,0.87
				c0.66,0.26,1.43,0.39,2.31,0.39c0.44,0,0.83-0.03,1.17-0.09c0.34-0.06,0.71-0.13,1.11-0.21l0.24,0.18
				c-0.44,1.72-0.53,3.52-0.27,5.4c0.26,1.88,0.59,3.8,0.99,5.76h-1.62c-0.96-2.32-2.13-4.37-3.51-6.15c-1.38-1.78-3-3.17-4.86-4.17
				c-1.86-1-4.03-1.5-6.51-1.5c-2.6,0-4.96,0.78-7.08,2.34c-2.12,1.56-3.81,3.77-5.07,6.63c-1.26,2.86-1.89,6.25-1.89,10.17
				c0,3.6,0.59,6.78,1.77,9.54c1.18,2.76,2.84,4.91,4.98,6.45c2.14,1.54,4.65,2.31,7.53,2.31c1.88,0,3.6-0.31,5.16-0.93
				c1.56-0.62,2.97-1.48,4.23-2.58c1.26-1.1,2.37-2.37,3.33-3.81c0.96-1.44,1.76-3,2.4-4.68h1.86c-0.56,1.92-1,3.88-1.32,5.88
				c-0.32,2-0.5,3.94-0.54,5.82h-0.42c-1.08,0-2.11,0.11-3.09,0.33c-0.98,0.22-1.93,0.45-2.85,0.69c-1.12,0.32-2.33,0.62-3.63,0.9
				C-84.77,257.02-86.4,257.16-88.36,257.16z"/>
			<path d="M-49.78,241.56l-14.04-21.84c-0.28-0.4-0.6-0.73-0.96-0.99c-0.36-0.26-0.78-0.43-1.26-0.51l-3.18-0.72v-1.32h21.6v1.32
				l-3.06,0.66c-0.96,0.2-1.69,0.55-2.19,1.05c-0.5,0.5-0.43,1.25,0.21,2.25l7.98,12.72h-1.02l9.3-13.38
				c0.32-0.48,0.4-0.91,0.24-1.29c-0.16-0.38-0.7-0.67-1.62-0.87l-5.1-1.14v-1.32h16.74v1.32l-3.78,0.78
				c-0.76,0.16-1.4,0.39-1.92,0.69c-0.52,0.3-0.92,0.79-1.2,1.47l-14.16,20.7L-49.78,241.56z M-58.78,256.56v-1.32l3.06-0.66
				c1.4-0.32,2.29-0.68,2.67-1.08c0.38-0.4,0.57-1.22,0.57-2.46v-15.66l8.4-0.48v16.14c0,1.24,0.2,2.06,0.6,2.46
				c0.4,0.4,1.28,0.76,2.64,1.08l3.06,0.66v1.32H-58.78z"/>
			<path d="M6.5,257.05c-3,0-5.47-0.62-7.41-1.86c-1.94-1.24-3.38-2.87-4.32-4.89c-0.94-2.02-1.41-4.19-1.41-6.51
				c0-1.76,0.27-3.48,0.81-5.16c0.54-1.68,1.36-3.21,2.46-4.59s2.49-2.48,4.17-3.3c1.68-0.82,3.66-1.23,5.94-1.23
				c1.32,0,2.58,0.14,3.78,0.42c1.2,0.28,2.22,0.64,3.06,1.08v-10.92c0-0.84-0.14-1.4-0.42-1.68c-0.28-0.28-0.68-0.48-1.2-0.6
				l-1.92-0.48v-1.08c2.28-0.32,4.22-0.62,5.82-0.9c1.6-0.28,3.26-0.74,4.98-1.38l0.6,0.48c-0.28,0.44-0.49,1.12-0.63,2.04
				c-0.14,0.92-0.21,1.92-0.21,3v31.32c0,1.32,0.34,2.26,1.02,2.82c0.68,0.56,1.82,0.84,3.42,0.84v1.56
				c-1.72,0.04-3.33,0.17-4.83,0.39c-1.5,0.22-3.13,0.43-4.89,0.63l-0.6-0.3l-0.48-3.3H14l-5.22,2.94
				c-0.28,0.16-0.63,0.31-1.05,0.45S6.9,257.05,6.5,257.05z M8.42,252.78c1.64,0,2.91-0.52,3.81-1.56c0.9-1.04,1.35-2.26,1.35-3.66
				v-8.22c0-1.4-0.28-2.69-0.84-3.87c-0.56-1.18-1.29-2.12-2.19-2.82c-0.9-0.7-1.89-1.05-2.97-1.05c-1.48,0-2.71,0.47-3.69,1.41
				c-0.98,0.94-1.7,2.16-2.16,3.66c-0.46,1.5-0.69,3.11-0.69,4.83c0,1.92,0.26,3.74,0.78,5.46c0.52,1.72,1.33,3.12,2.43,4.2
				C5.35,252.24,6.74,252.78,8.42,252.78z"/>
			<path d="M40.46,257.05c-2.56,0-4.83-0.6-6.81-1.8c-1.98-1.2-3.54-2.82-4.68-4.86s-1.71-4.3-1.71-6.78c0-2.8,0.61-5.26,1.83-7.38
				c1.22-2.12,2.88-3.78,4.98-4.98c2.1-1.2,4.47-1.8,7.11-1.8c2.12,0,3.97,0.49,5.55,1.47c1.58,0.98,2.81,2.32,3.69,4.02
				c0.88,1.7,1.32,3.61,1.32,5.73c0,0.4-0.11,0.75-0.33,1.05c-0.22,0.3-0.57,0.45-1.05,0.45H30.92v-2.16l13.02-0.54
				c0.56,0,0.84-0.42,0.84-1.26c0-2.12-0.36-3.79-1.08-5.01c-0.72-1.22-1.68-1.83-2.88-1.83c-1.84,0-3.28,1-4.32,3
				c-1.04,2-1.56,4.62-1.56,7.86c0,2.24,0.4,4.14,1.2,5.7c0.8,1.56,1.86,2.74,3.18,3.54c1.32,0.8,2.76,1.2,4.32,1.2
				c2.36,0,4.72-1,7.08-3l1.02,0.96c-1.6,2.2-3.34,3.82-5.22,4.86C44.64,256.53,42.62,257.05,40.46,257.05z"/>
			<path d="M65.42,257.05c-1.96,0-3.8-0.29-5.52-0.87c-1.72-0.58-3.04-1.13-3.96-1.65c0.08-1.16,0.13-2.48,0.15-3.96
				c0.02-1.48-0.13-2.84-0.45-4.08h2.28c0.24,1.56,0.71,3,1.41,4.32c0.7,1.32,1.6,2.38,2.7,3.18c1.1,0.8,2.35,1.2,3.75,1.2
				c1.2,0,2.17-0.34,2.91-1.02c0.74-0.68,1.11-1.62,1.11-2.82c0-0.96-0.18-1.75-0.54-2.37c-0.36-0.62-1.01-1.2-1.95-1.74
				c-0.94-0.54-2.29-1.15-4.05-1.83c-2.4-0.92-4.14-2.03-5.22-3.33c-1.08-1.3-1.62-3.03-1.62-5.19c0-1.32,0.41-2.54,1.23-3.66
				c0.82-1.12,1.96-2.03,3.42-2.73c1.46-0.7,3.17-1.05,5.13-1.05c1.32,0,2.4,0.12,3.24,0.36s1.72,0.56,2.64,0.96h1.56
				c-0.16,1.48-0.19,2.76-0.09,3.84s0.27,2.26,0.51,3.54h-1.8c-0.6-2.24-1.46-3.95-2.58-5.13c-1.12-1.18-2.5-1.77-4.14-1.77
				c-1.08,0-1.95,0.31-2.61,0.93c-0.66,0.62-0.99,1.43-0.99,2.43c0,0.96,0.2,1.74,0.6,2.34c0.4,0.6,1.06,1.12,1.98,1.56
				c0.92,0.44,2.14,0.92,3.66,1.44c2.16,0.76,3.92,1.77,5.28,3.03c1.36,1.26,2.04,3.17,2.04,5.73c0,1.36-0.36,2.68-1.08,3.96
				c-0.72,1.28-1.83,2.33-3.33,3.15S67.7,257.05,65.42,257.05z"/>
			<path d="M79.7,256.56v-1.02l1.92-0.72c1.08-0.44,1.62-1.24,1.62-2.4v-17.16c0-0.84-0.14-1.4-0.42-1.68
				c-0.28-0.28-0.68-0.48-1.2-0.6l-1.92-0.48v-1.08c2.28-0.32,4.22-0.62,5.82-0.9c1.6-0.28,3.26-0.74,4.98-1.38l0.6,0.48
				c-0.28,0.44-0.49,1.12-0.63,2.04c-0.14,0.92-0.21,1.92-0.21,3v18.18c0,0.56,0.19,1,0.57,1.32c0.38,0.32,0.73,0.54,1.05,0.66
				l1.92,0.72v1.02H79.7z M86.66,223.86c-1.24,0-2.29-0.43-3.15-1.29c-0.86-0.86-1.29-1.91-1.29-3.15c0-1.24,0.43-2.29,1.29-3.15
				c0.86-0.86,1.91-1.29,3.15-1.29c1.24,0,2.29,0.43,3.15,1.29c0.86,0.86,1.29,1.91,1.29,3.15c0,1.24-0.43,2.29-1.29,3.15
				C88.95,223.44,87.9,223.86,86.66,223.86z"/>
			<path d="M108.92,272.16c-2.16,0-4.24-0.24-6.24-0.72c-2-0.48-3.63-1.22-4.89-2.22c-1.26-1-1.89-2.3-1.89-3.9
				c0-1.32,0.49-2.46,1.47-3.42c0.98-0.96,2.22-1.7,3.72-2.22c1.5-0.52,3.01-0.78,4.53-0.78l2.04,0.36
				c-1.92,0.28-3.27,0.83-4.05,1.65c-0.78,0.82-1.17,1.79-1.17,2.91c0,1.32,0.73,2.54,2.19,3.66c1.46,1.12,3.67,1.68,6.63,1.68
				c2.84,0,5.21-0.46,7.11-1.38c1.9-0.92,2.85-2.24,2.85-3.96c0-1.52-0.7-2.7-2.1-3.54c-1.4-0.84-3.16-1.26-5.28-1.26
				c-1.12,0-2.26,0.04-3.42,0.12c-1.16,0.08-2.32,0.12-3.48,0.12c-2.8,0-5.12-0.48-6.96-1.44c-1.84-0.96-2.76-2.36-2.76-4.2
				c0-0.12,0.03-0.23,0.09-0.33c0.06-0.1,0.17-0.21,0.33-0.33c1.12-0.8,2.11-1.66,2.97-2.58c0.86-0.92,1.63-1.84,2.31-2.76v-0.3
				c-1.68-0.92-2.93-2.15-3.75-3.69c-0.82-1.54-1.23-3.03-1.23-4.47c0-2.84,1-5.16,3-6.96c2-1.8,4.64-2.7,7.92-2.7
				c1.16,0,2.23,0.13,3.21,0.39c0.98,0.26,1.91,0.55,2.79,0.87c0.76,0.24,1.49,0.46,2.19,0.66s1.39,0.3,2.07,0.3
				c1.16,0,1.74-0.36,1.74-1.08c0-0.28-0.06-0.59-0.18-0.93c-0.12-0.34-0.3-0.69-0.54-1.05c-0.2-0.32-0.38-0.64-0.54-0.96
				c-0.16-0.32-0.24-0.68-0.24-1.08c0-0.88,0.26-1.52,0.78-1.92c0.52-0.4,1.12-0.6,1.8-0.6c0.92,0,1.65,0.36,2.19,1.08
				s0.81,1.6,0.81,2.64c0,2.28-0.42,3.9-1.26,4.86c-0.84,0.96-1.88,1.44-3.12,1.44c-0.8,0-1.62-0.18-2.46-0.54v0.36
				c0.56,1,0.96,1.9,1.2,2.7c0.24,0.8,0.36,1.74,0.36,2.82c0,1.68-0.42,3.22-1.26,4.62c-0.84,1.4-2.04,2.52-3.6,3.36
				c-1.56,0.84-3.44,1.26-5.64,1.26c-1.84,0-3.29,0.2-4.35,0.6c-1.06,0.4-1.59,0.92-1.59,1.56c0,0.64,0.32,1.12,0.96,1.44
				c0.64,0.32,1.46,0.48,2.46,0.48c0.88,0,2.08-0.04,3.6-0.12c1.52-0.08,2.9-0.12,4.14-0.12c1.92,0,3.76,0.26,5.52,0.78
				c1.76,0.52,3.2,1.39,4.32,2.61s1.68,2.89,1.68,5.01c0,2.52-0.76,4.61-2.28,6.27c-1.52,1.66-3.56,2.9-6.12,3.72
				C114.94,271.75,112.08,272.16,108.92,272.16z M109.1,246.36c1.16,0,2.06-0.57,2.7-1.71c0.64-1.14,0.96-2.93,0.96-5.37
				c0-2.48-0.33-4.36-0.99-5.64c-0.66-1.28-1.63-1.92-2.91-1.92c-1.16,0-2.06,0.56-2.7,1.68c-0.64,1.12-0.96,2.86-0.96,5.22
				c0,2.56,0.33,4.49,0.99,5.79C106.85,245.72,107.82,246.36,109.1,246.36z"/>
			<path d="M128.18,256.56v-1.02l1.92-0.72c0.56-0.2,0.97-0.51,1.23-0.93c0.26-0.42,0.39-0.91,0.39-1.47v-17.16
				c0-0.84-0.14-1.4-0.42-1.68c-0.28-0.28-0.68-0.48-1.2-0.6l-1.92-0.48v-1.08c1.56-0.24,2.89-0.45,3.99-0.63
				c1.1-0.18,2.15-0.4,3.15-0.66c1-0.26,2.08-0.59,3.24-0.99l0.6,0.48c-0.28,0.44-0.49,1.12-0.63,2.04c-0.14,0.92-0.21,1.92-0.21,3
				v0.6l0.42,1.32v16.26c0,0.56,0.19,1,0.57,1.32c0.38,0.32,0.73,0.54,1.05,0.66l1.92,0.72v1.02H128.18z M145.88,256.56v-1.02
				l1.92-0.72c0.56-0.2,0.97-0.51,1.23-0.93c0.26-0.42,0.39-0.91,0.39-1.47v-12.54c0-1.76-0.45-3.11-1.35-4.05
				c-0.9-0.94-2.21-1.41-3.93-1.41s-3.05,0.53-3.99,1.59c-0.94,1.06-1.41,2.41-1.41,4.05l-0.9-6.3h0.84
				c1.2-0.56,2.41-1.17,3.63-1.83c1.22-0.66,2.45-1.35,3.69-2.07c0.44-0.28,0.94-0.42,1.5-0.42c2.84,0,5.04,0.72,6.6,2.16
				c1.56,1.44,2.34,3.52,2.34,6.24v15c0,0.56,0.19,1,0.57,1.32c0.38,0.32,0.73,0.54,1.05,0.66l1.92,0.72v1.02H145.88z"/>
			<path d="M172.76,257.05c-1.96,0-3.8-0.29-5.52-0.87c-1.72-0.58-3.04-1.13-3.96-1.65c0.08-1.16,0.13-2.48,0.15-3.96
				c0.02-1.48-0.13-2.84-0.45-4.08h2.28c0.24,1.56,0.71,3,1.41,4.32c0.7,1.32,1.6,2.38,2.7,3.18c1.1,0.8,2.35,1.2,3.75,1.2
				c1.2,0,2.17-0.34,2.91-1.02c0.74-0.68,1.11-1.62,1.11-2.82c0-0.96-0.18-1.75-0.54-2.37c-0.36-0.62-1.01-1.2-1.95-1.74
				c-0.94-0.54-2.29-1.15-4.05-1.83c-2.4-0.92-4.14-2.03-5.22-3.33c-1.08-1.3-1.62-3.03-1.62-5.19c0-1.32,0.41-2.54,1.23-3.66
				c0.82-1.12,1.96-2.03,3.42-2.73c1.46-0.7,3.17-1.05,5.13-1.05c1.32,0,2.4,0.12,3.24,0.36s1.72,0.56,2.64,0.96h1.56
				c-0.16,1.48-0.19,2.76-0.09,3.84s0.27,2.26,0.51,3.54h-1.8c-0.6-2.24-1.46-3.95-2.58-5.13c-1.12-1.18-2.5-1.77-4.14-1.77
				c-1.08,0-1.95,0.31-2.61,0.93c-0.66,0.62-0.99,1.43-0.99,2.43c0,0.96,0.2,1.74,0.6,2.34c0.4,0.6,1.06,1.12,1.98,1.56
				c0.92,0.44,2.14,0.92,3.66,1.44c2.16,0.76,3.92,1.77,5.28,3.03c1.36,1.26,2.04,3.17,2.04,5.73c0,1.36-0.36,2.68-1.08,3.96
				c-0.72,1.28-1.83,2.33-3.33,3.15S175.04,257.05,172.76,257.05z"/>
			<path d="M-306.72,328.56v-43.64h1.36v19.26h0.17c0.57-1.82,1.39-3.39,2.47-4.72c1.08-1.33,2.35-2.35,3.81-3.07
				c1.46-0.72,3.06-1.08,4.79-1.08c2.56,0,4.78,0.75,6.67,2.24c1.89,1.49,3.35,3.52,4.39,6.07c1.04,2.56,1.56,5.44,1.56,8.65
				c0,3.22-0.52,6.12-1.54,8.67s-2.49,4.58-4.37,6.06c-1.88,1.48-4.12,2.23-6.7,2.23c-1.75,0-3.35-0.36-4.8-1.09
				c-1.46-0.72-2.72-1.75-3.78-3.08s-1.9-2.89-2.49-4.7h-0.17v8.18H-306.72z M-305.35,312.29c0,2.95,0.45,5.61,1.36,7.96
				c0.91,2.35,2.21,4.21,3.89,5.58c1.68,1.37,3.68,2.06,6,2.06s4.31-0.69,6-2.06c1.68-1.37,2.98-3.23,3.89-5.58
				c0.91-2.35,1.36-5,1.36-7.96s-0.46-5.61-1.37-7.96c-0.92-2.35-2.22-4.21-3.9-5.58c-1.68-1.37-3.68-2.06-5.98-2.06
				c-2.3,0-4.29,0.69-5.98,2.06c-1.68,1.37-2.98,3.23-3.9,5.58S-305.35,309.33-305.35,312.29z"/>
			<path d="M-271.01,289.87c-0.37,0-0.69-0.13-0.96-0.4c-0.27-0.27-0.4-0.59-0.4-0.96s0.13-0.69,0.4-0.96
				c0.27-0.27,0.59-0.41,0.96-0.41c0.37,0,0.69,0.14,0.96,0.41c0.27,0.27,0.4,0.59,0.4,0.96s-0.14,0.69-0.4,0.96
				C-270.32,289.74-270.64,289.87-271.01,289.87z M-271.69,328.56v-32.73h1.36v32.73H-271.69z"/>
			<path d="M-257.2,306.58v21.99h-1.36v-43.64h1.36v16.11h0.17c0.77-1.71,2.03-3.07,3.78-4.09s3.76-1.53,6.02-1.53
				c2.19,0,4.12,0.48,5.8,1.43c1.68,0.95,2.99,2.27,3.94,3.94c0.95,1.68,1.43,3.61,1.43,5.8v21.99h-1.36v-21.99
				c0-2.9-0.91-5.26-2.73-7.07c-1.82-1.82-4.18-2.73-7.07-2.73c-1.93,0-3.65,0.42-5.15,1.26c-1.5,0.84-2.68,2-3.54,3.47
				C-256.77,302.98-257.2,304.67-257.2,306.58z"/>
			<path d="M-212.2,329.25c-2.86,0-5.35-0.75-7.49-2.24c-2.14-1.49-3.8-3.52-4.98-6.07s-1.77-5.44-1.77-8.65s0.59-6.09,1.78-8.65
				s2.8-4.58,4.85-6.07c2.05-1.49,4.35-2.24,6.92-2.24c1.9,0,3.67,0.4,5.29,1.21s3.04,1.93,4.25,3.37s2.15,3.09,2.82,4.95
				c0.67,1.87,1.01,3.86,1.01,5.98v1.36h-26.25v-1.36h24.89c0-2.63-0.54-5.01-1.62-7.15c-1.08-2.14-2.53-3.84-4.35-5.1
				c-1.82-1.26-3.84-1.9-6.05-1.9c-2.24,0-4.28,0.67-6.09,2s-3.27,3.15-4.37,5.45c-1.09,2.3-1.67,4.9-1.73,7.8v0.17
				c0,2.86,0.5,5.48,1.5,7.87s2.46,4.31,4.38,5.74c1.92,1.44,4.25,2.15,6.99,2.15c2.02,0,3.71-0.36,5.08-1.07
				c1.37-0.71,2.47-1.53,3.3-2.45c0.83-0.92,1.44-1.71,1.84-2.37l1.11,0.77c-0.48,0.82-1.21,1.74-2.17,2.75s-2.2,1.88-3.71,2.62
				C-208.25,328.88-210.07,329.25-212.2,329.25z"/>
			<path d="M-178.62,295.84v1.36h-12.95v-1.36H-178.62z M-187.06,328.56v-38.1c0-1.53,0.34-2.86,1.03-3.98s1.6-1.99,2.75-2.6
				c1.14-0.61,2.38-0.92,3.72-0.92c0.51,0,0.97,0.04,1.38,0.13s0.82,0.2,1.21,0.34l-0.43,1.28c-0.36-0.11-0.7-0.21-1.04-0.28
				s-0.72-0.11-1.13-0.11c-1.63,0-3.06,0.55-4.29,1.64c-1.23,1.09-1.84,2.59-1.84,4.5l-0.04,38.1H-187.06z"/>
			<path d="M-158.25,329.25c-2.64,0-5-0.74-7.06-2.23s-3.69-3.5-4.88-6.06s-1.78-5.45-1.78-8.67c0-3.2,0.59-6.08,1.77-8.64
				c1.18-2.56,2.8-4.59,4.87-6.08c2.07-1.49,4.43-2.24,7.08-2.24c1.96,0,3.76,0.42,5.4,1.27s3.02,2.02,4.12,3.54
				s1.83,3.26,2.15,5.25h-1.45c-0.44-2.57-1.61-4.66-3.5-6.28c-1.9-1.61-4.14-2.42-6.72-2.42c-2.34,0-4.45,0.68-6.32,2.04
				c-1.87,1.36-3.34,3.21-4.42,5.56c-1.08,2.35-1.62,5.02-1.62,8c0,2.9,0.52,5.53,1.57,7.88c1.04,2.36,2.5,4.23,4.36,5.62
				c1.86,1.39,4.01,2.09,6.43,2.09c1.75,0,3.35-0.37,4.82-1.1c1.46-0.73,2.68-1.76,3.65-3.1c0.97-1.33,1.59-2.89,1.84-4.67h1.45
				c-0.31,2.06-1.02,3.86-2.13,5.39c-1.11,1.53-2.49,2.72-4.15,3.57S-156.26,329.25-158.25,329.25z"/>
			<path d="M-135.37,340.84c-0.55,0-1.14-0.07-1.77-0.22c-0.63-0.15-1.26-0.36-1.9-0.63l0.51-1.19c1.41,0.6,2.69,0.81,3.85,0.65
				c1.16-0.16,2.18-0.7,3.07-1.61s1.62-2.18,2.21-3.81l1.75-4.86l-11.93-33.32h1.45l11.08,31.02h0.17l11.08-31.02h1.45l-13.76,38.69
				c-0.48,1.36-1.09,2.51-1.81,3.45s-1.54,1.65-2.46,2.13C-133.31,340.6-134.31,340.84-135.37,340.84z"/>
			<path d="M-77.97,329.25c-2.59,0-4.82-0.74-6.71-2.23c-1.89-1.48-3.35-3.5-4.37-6.06c-1.02-2.56-1.53-5.45-1.53-8.67
				c0-3.21,0.52-6.09,1.56-8.65c1.04-2.56,2.5-4.58,4.39-6.07c1.89-1.49,4.11-2.24,6.67-2.24c1.73,0,3.33,0.36,4.79,1.08
				c1.46,0.72,2.73,1.74,3.81,3.07c1.08,1.33,1.9,2.9,2.47,4.72h0.17v-19.26h1.36v43.64h-1.36v-8.18h-0.17
				c-0.6,1.8-1.43,3.37-2.49,4.7c-1.07,1.33-2.33,2.35-3.78,3.08C-74.62,328.88-76.22,329.25-77.97,329.25z M-77.97,327.88
				c2.32,0,4.31-0.69,6-2.06c1.68-1.37,2.98-3.23,3.89-5.58c0.91-2.35,1.36-5,1.36-7.96s-0.46-5.61-1.38-7.96
				c-0.92-2.35-2.22-4.21-3.9-5.58c-1.68-1.37-3.68-2.06-5.98-2.06c-2.3,0-4.29,0.69-5.98,2.06c-1.68,1.37-2.98,3.23-3.9,5.58
				c-0.92,2.35-1.37,5-1.37,7.96s0.45,5.61,1.36,7.96c0.91,2.35,2.21,4.21,3.89,5.58C-82.28,327.2-80.29,327.88-77.97,327.88z"/>
			<path d="M-40.47,329.25c-2.86,0-5.35-0.75-7.49-2.24c-2.14-1.49-3.8-3.52-4.98-6.07s-1.77-5.44-1.77-8.65s0.59-6.09,1.78-8.65
				c1.19-2.56,2.8-4.58,4.85-6.07c2.04-1.49,4.35-2.24,6.92-2.24c1.9,0,3.67,0.4,5.29,1.21c1.63,0.81,3.04,1.93,4.25,3.37
				s2.15,3.09,2.82,4.95c0.67,1.87,1.01,3.86,1.01,5.98v1.36h-26.25v-1.36h24.89c0-2.63-0.54-5.01-1.62-7.15
				c-1.08-2.14-2.53-3.84-4.35-5.1s-3.83-1.9-6.05-1.9c-2.25,0-4.28,0.67-6.09,2c-1.82,1.33-3.27,3.15-4.37,5.45
				c-1.09,2.3-1.67,4.9-1.73,7.8v0.17c0,2.86,0.5,5.48,1.5,7.87c1,2.39,2.46,4.31,4.38,5.74c1.92,1.44,4.25,2.15,6.99,2.15
				c2.02,0,3.71-0.36,5.08-1.07c1.37-0.71,2.47-1.53,3.3-2.45s1.45-1.71,1.84-2.37l1.11,0.77c-0.48,0.82-1.21,1.74-2.17,2.75
				c-0.97,1.01-2.2,1.88-3.71,2.62S-38.34,329.25-40.47,329.25z"/>
			<path d="M1.46,302.74l-1.36,0.34c-0.44-1.42-1.05-2.6-1.84-3.55c-0.79-0.94-1.75-1.66-2.89-2.13s-2.46-0.71-3.96-0.71
				c-2.61,0-4.73,0.66-6.35,1.99s-2.43,3.08-2.43,5.25c0,1.72,0.55,3.16,1.65,4.33c1.1,1.17,2.77,2.02,5,2.58l5.11,1.28
				c2.4,0.6,4.22,1.61,5.46,3.03c1.24,1.42,1.86,3.14,1.86,5.16c0,1.78-0.47,3.34-1.4,4.69c-0.93,1.35-2.21,2.4-3.85,3.14
				c-1.63,0.75-3.52,1.12-5.67,1.12c-2.91,0-5.29-0.71-7.14-2.13c-1.85-1.42-3.05-3.44-3.6-6.05l1.36-0.34
				c0.48,2.32,1.52,4.09,3.1,5.32c1.58,1.23,3.67,1.84,6.27,1.84c2.84,0,5.14-0.7,6.9-2.09c1.76-1.39,2.64-3.22,2.64-5.5
				c0-1.69-0.53-3.12-1.58-4.28c-1.05-1.16-2.63-2.01-4.73-2.54l-5.11-1.28c-2.51-0.62-4.42-1.65-5.72-3.07s-1.95-3.15-1.95-5.2
				c0-1.72,0.43-3.22,1.29-4.51c0.86-1.29,2.05-2.29,3.58-3.02c1.53-0.72,3.28-1.09,5.27-1.09c2.53,0,4.64,0.62,6.33,1.86
				S0.67,300.28,1.46,302.74z"/>
			<path d="M12.28,289.87c-0.37,0-0.69-0.13-0.96-0.4c-0.27-0.27-0.4-0.59-0.4-0.96s0.13-0.69,0.4-0.96
				c0.27-0.27,0.59-0.41,0.96-0.41s0.69,0.14,0.96,0.41s0.41,0.59,0.41,0.96s-0.14,0.69-0.41,0.96S12.65,289.87,12.28,289.87z
				 M11.6,328.56v-32.73h1.36v32.73H11.6z"/>
			<path d="M35.81,341.52c-1.83,0-3.52-0.24-5.07-0.73s-2.88-1.22-4.01-2.2c-1.12-0.97-1.96-2.18-2.51-3.63l1.28-0.51
				c0.5,1.28,1.24,2.34,2.23,3.19c0.99,0.84,2.17,1.48,3.56,1.9c1.38,0.42,2.89,0.63,4.53,0.63c3.41,0,6.07-0.9,7.97-2.7
				s2.86-4.54,2.86-8.21v-8.86h-0.17c-0.57,1.82-1.41,3.33-2.54,4.55s-2.42,2.12-3.9,2.73s-3.03,0.91-4.64,0.91
				c-2.56,0-4.78-0.69-6.67-2.07c-1.89-1.38-3.35-3.29-4.39-5.73c-1.04-2.44-1.56-5.27-1.56-8.48c0-3.24,0.51-6.14,1.53-8.69
				s2.48-4.57,4.37-6.05c1.89-1.48,4.13-2.22,6.71-2.22c1.76,0,3.37,0.36,4.82,1.08c1.45,0.72,2.71,1.74,3.77,3.07
				c1.07,1.33,1.9,2.9,2.49,4.72h0.17v-8.35h1.36v33.41c0,2.68-0.49,4.94-1.47,6.76c-0.98,1.83-2.38,3.2-4.2,4.12
				C40.51,341.06,38.33,341.52,35.81,341.52z M35.38,327.2c2.27,0,4.25-0.6,5.93-1.81c1.68-1.21,2.99-2.93,3.92-5.17
				c0.93-2.24,1.4-4.88,1.4-7.94c0-2.95-0.46-5.61-1.36-7.96s-2.21-4.21-3.89-5.58c-1.68-1.37-3.68-2.06-6-2.06
				c-2.32,0-4.32,0.69-6,2.06c-1.68,1.37-2.98,3.23-3.89,5.58s-1.36,5-1.36,7.96s0.46,5.55,1.37,7.79c0.92,2.24,2.22,3.98,3.9,5.24
				C31.09,326.57,33.08,327.2,35.38,327.2z"/>
			<path d="M61.12,306.58v21.99h-1.36v-32.73h1.36v5.2h0.17c0.77-1.71,2.03-3.07,3.78-4.09s3.76-1.53,6.02-1.53
				c2.19,0,4.12,0.48,5.79,1.43c1.68,0.95,2.99,2.27,3.94,3.94c0.95,1.68,1.43,3.61,1.43,5.8v21.99h-1.36v-21.99
				c0-2.9-0.91-5.26-2.73-7.07s-4.18-2.73-7.07-2.73c-1.93,0-3.65,0.42-5.15,1.26c-1.5,0.84-2.68,2-3.54,3.47
				S61.12,304.67,61.12,306.58z"/>
			<path d="M113.45,302.74l-1.36,0.34c-0.44-1.42-1.05-2.6-1.84-3.55c-0.79-0.94-1.75-1.66-2.89-2.13s-2.46-0.71-3.96-0.71
				c-2.61,0-4.73,0.66-6.35,1.99s-2.43,3.08-2.43,5.25c0,1.72,0.55,3.16,1.65,4.33c1.1,1.17,2.77,2.02,5,2.58l5.11,1.28
				c2.4,0.6,4.22,1.61,5.46,3.03c1.24,1.42,1.86,3.14,1.86,5.16c0,1.78-0.47,3.34-1.4,4.69c-0.93,1.35-2.21,2.4-3.85,3.14
				c-1.63,0.75-3.52,1.12-5.67,1.12c-2.91,0-5.29-0.71-7.14-2.13c-1.85-1.42-3.05-3.44-3.6-6.05l1.36-0.34
				c0.48,2.32,1.52,4.09,3.1,5.32c1.58,1.23,3.67,1.84,6.27,1.84c2.84,0,5.14-0.7,6.9-2.09c1.76-1.39,2.64-3.22,2.64-5.5
				c0-1.69-0.53-3.12-1.58-4.28c-1.05-1.16-2.63-2.01-4.73-2.54l-5.11-1.28c-2.51-0.62-4.42-1.65-5.72-3.07s-1.95-3.15-1.95-5.2
				c0-1.72,0.43-3.22,1.29-4.51c0.86-1.29,2.05-2.29,3.58-3.02c1.53-0.72,3.28-1.09,5.27-1.09c2.53,0,4.64,0.62,6.33,1.86
				S112.65,300.28,113.45,302.74z"/>
			<path d="M-306.28,368.4h-0.18c0-0.96-0.32-1.74-0.96-2.34c-0.64-0.6-1.48-0.9-2.52-0.9h-0.66v-0.6h4.32V368.4z M-306.28,396.73
				v3.84h-4.32v-0.6h0.66c1.04,0,1.88-0.32,2.52-0.96c0.64-0.64,0.96-1.4,0.96-2.28H-306.28z M-301.06,364.56v36h-5.4v-36H-301.06z
				 M-297.1,364.56c1.24,0,2.6,0.11,4.08,0.33c1.48,0.22,2.88,0.63,4.2,1.23c1.32,0.6,2.41,1.5,3.27,2.7
				c0.86,1.2,1.29,2.78,1.29,4.74c0,1.28-0.32,2.45-0.96,3.51c-0.64,1.06-1.46,1.92-2.46,2.58c-1,0.66-2.06,1.11-3.18,1.35
				c1.88,0.16,3.56,0.67,5.04,1.53c1.48,0.86,2.65,1.97,3.51,3.33c0.86,1.36,1.29,2.88,1.29,4.56c0,1.92-0.4,3.53-1.2,4.83
				c-0.8,1.3-1.88,2.34-3.24,3.12c-1.36,0.78-2.86,1.34-4.5,1.68c-1.64,0.34-3.28,0.51-4.92,0.51h-6.72
				c0.04-0.68,0.06-1.34,0.06-1.98h5.76c1.64,0,3.11-0.29,4.41-0.87c1.3-0.58,2.34-1.49,3.12-2.73c0.78-1.24,1.17-2.82,1.17-4.74
				c0-1.76-0.35-3.21-1.05-4.35c-0.7-1.14-1.63-2.02-2.79-2.64c-1.16-0.62-2.46-1.06-3.9-1.32c-1.44-0.26-2.92-0.39-4.44-0.39v-0.6
				c1.04,0,2.1-0.09,3.18-0.27c1.08-0.18,2.07-0.53,2.97-1.05c0.9-0.52,1.64-1.25,2.22-2.19c0.58-0.94,0.87-2.17,0.87-3.69
				c0-2.56-0.7-4.4-2.1-5.52c-1.4-1.12-3.28-1.68-5.64-1.68h-6.84c0-0.04-0.05-0.22-0.15-0.54c-0.1-0.32-0.23-0.8-0.39-1.44H-297.1z
				"/>
			<path d="M-270.94,368.4h-0.18c-0.04-0.92-0.43-1.69-1.17-2.31c-0.74-0.62-1.65-0.93-2.73-0.93h-0.78v-0.6h4.86V368.4z
				 M-270.94,396.73v3.84h-4.86v-0.6c0.52,0,0.8,0,0.84,0c1.04,0,1.93-0.32,2.67-0.96c0.74-0.64,1.13-1.4,1.17-2.28H-270.94z
				 M-265.72,364.56v36h-5.4v-36H-265.72z M-265.9,368.4v-3.84h4.86l-0.06,0.6h-0.72c-1.08,0-1.99,0.31-2.73,0.93
				c-0.74,0.62-1.13,1.39-1.17,2.31H-265.9z M-265.9,396.73h0.18c0.04,0.88,0.43,1.64,1.17,2.28c0.74,0.64,1.65,0.96,2.73,0.96h0.72
				l0.06,0.6h-4.86V396.73z"/>
			<path d="M-251.02,368.4h-0.18c-0.04-0.92-0.39-1.69-1.05-2.31c-0.66-0.62-1.45-0.93-2.37-0.93h-0.72v-0.6h4.32V368.4z
				 M-251.02,396.73v3.84h-4.32v-0.6h0.72c0.92,0,1.71-0.32,2.37-0.96c0.66-0.64,1.01-1.4,1.05-2.28H-251.02z M-245.8,364.56v36
				h-5.4v-36H-245.8z M-225.16,381.73v2.04h-21.24v-2.04H-225.16z M-245.92,368.4v-3.84h4.26v0.6h-0.72c-0.92,0-1.71,0.31-2.37,0.93
				c-0.66,0.62-1.01,1.39-1.05,2.31H-245.92z M-245.92,396.73h0.12c0.04,0.88,0.39,1.64,1.05,2.28c0.66,0.64,1.45,0.96,2.37,0.96
				h0.72v0.6h-4.26V396.73z M-225.58,368.4h-0.18c-0.04-0.92-0.38-1.69-1.02-2.31c-0.64-0.62-1.44-0.93-2.4-0.93h-0.66v-0.6h4.26
				V368.4z M-225.58,396.73v3.84h-4.26v-0.6h0.66c0.96,0,1.76-0.32,2.4-0.96c0.64-0.64,0.98-1.4,1.02-2.28H-225.58z M-220.3,364.56
				v36h-5.46v-36H-220.3z M-220.48,368.4v-3.84h4.32v0.6h-0.72c-0.96,0-1.76,0.31-2.4,0.93c-0.64,0.62-0.98,1.39-1.02,2.31H-220.48z
				 M-220.48,396.73h0.18c0.04,0.88,0.38,1.64,1.02,2.28c0.64,0.64,1.44,0.96,2.4,0.96h0.66v0.6h-4.26V396.73z"/>
			<path d="M-206.14,368.35h-0.12c-0.04-0.92-0.37-1.68-0.99-2.28c-0.62-0.6-1.41-0.9-2.37-0.9c-0.04,0-0.32,0-0.84,0v-0.6h4.98
				L-206.14,368.35z M-206.14,396.73l0.66,3.84h-4.98v-0.6c0.52,0,0.8,0,0.84,0c0.96,0,1.75-0.32,2.37-0.96
				c0.62-0.64,0.95-1.4,0.99-2.28H-206.14z M-200.8,364.56v36h-5.46v-36H-200.8z M-185.2,364.56v2.04h-15.72v-2.04H-185.2z
				 M-187.9,381.6v2.04h-13.02v-2.04H-187.9z M-185.38,398.53l0.42,2.04h-15.96v-2.04H-185.38z M-181.84,391.15l-2.94,9.42h-9.54
				l1.98-2.04c1.88,0,3.45-0.31,4.71-0.93c1.26-0.62,2.31-1.49,3.15-2.61c0.84-1.12,1.52-2.4,2.04-3.84H-181.84z M-185.2,363.6v1.56
				l-6.66-0.6c1.24,0,2.54-0.11,3.9-0.33C-186.6,364.02-185.68,363.81-185.2,363.6z M-187.9,377.7v4.02h-3.84v-0.12
				c1.04,0,1.83-0.32,2.37-0.96c0.54-0.64,0.81-1.4,0.81-2.28v-0.66H-187.9z M-187.9,383.52v4.02h-0.66v-0.66
				c0-0.92-0.27-1.69-0.81-2.31c-0.54-0.62-1.33-0.93-2.37-0.93v-0.12H-187.9z M-185.2,366.43v4.92h-0.6v-0.78
				c0-1.16-0.34-2.11-1.02-2.85c-0.68-0.74-1.62-1.11-2.82-1.11v-0.18H-185.2z"/>
			<path d="M-172.96,368.35h-0.12c-0.04-0.92-0.38-1.68-1.02-2.28c-0.64-0.6-1.44-0.9-2.4-0.9c-0.04,0-0.32,0-0.84,0v-0.6h4.98
				L-172.96,368.35z M-172.96,396.73l0.6,3.84h-4.98v-0.6c0.52,0,0.8,0,0.84,0c0.96,0,1.76-0.32,2.4-0.96
				c0.64-0.64,0.98-1.4,1.02-2.28H-172.96z M-167.68,364.56v36h-5.4v-36H-167.68z M-167.8,396.73h0.12
				c0.04,0.88,0.38,1.64,1.02,2.28c0.64,0.64,1.46,0.96,2.46,0.96h0.78v0.6h-4.98L-167.8,396.73z M-151.84,364.56v2.04h-15.96v-2.04
				H-151.84z M-154.66,381.6v2.04h-13.14v-2.04H-154.66z M-151.84,363.6v1.56l-6.72-0.6c0.8,0,1.65-0.05,2.55-0.15
				c0.9-0.1,1.73-0.23,2.49-0.39C-152.76,363.87-152.2,363.73-151.84,363.6z M-154.66,377.7v4.02h-3.84v-0.12
				c1.08,0,1.88-0.32,2.4-0.96c0.52-0.64,0.78-1.4,0.78-2.28v-0.66H-154.66z M-154.66,383.52v4.02h-0.66v-0.66
				c0-0.92-0.26-1.69-0.78-2.31c-0.52-0.62-1.32-0.93-2.4-0.93v-0.12H-154.66z M-151.84,366.43v4.92h-0.66v-0.78
				c0-1.16-0.34-2.11-1.02-2.85c-0.68-0.74-1.62-1.11-2.82-1.11v-0.18H-151.84z"/>
			<path d="M-109.3,385.44l-0.18,8.52c-0.96,1.48-2.23,2.78-3.81,3.9c-1.58,1.12-3.4,1.99-5.46,2.61c-2.06,0.62-4.31,0.93-6.75,0.93
				c-4.2-0.04-7.83-0.82-10.89-2.34s-5.41-3.67-7.05-6.45c-1.64-2.78-2.46-6.13-2.46-10.05c0-3.92,0.82-7.28,2.46-10.08
				c1.64-2.8,3.99-4.96,7.05-6.48s6.69-2.28,10.89-2.28c2.56,0,5.07,0.3,7.53,0.9c2.46,0.6,4.57,1.42,6.33,2.46l0.9,8.82h-0.54
				c-0.92-3.68-2.63-6.3-5.13-7.86c-2.5-1.56-5.47-2.34-8.91-2.34c-3.08,0-5.71,0.69-7.89,2.07c-2.18,1.38-3.86,3.32-5.04,5.82
				c-1.18,2.5-1.77,5.47-1.77,8.91c0,3.4,0.59,6.36,1.77,8.88c1.18,2.52,2.85,4.46,5.01,5.82c2.16,1.36,4.74,2.08,7.74,2.16
				c2.96,0,5.55-0.48,7.77-1.44c2.22-0.96,4.02-2.46,5.4-4.5s2.23-4.7,2.55-7.98H-109.3z"/>
			<path d="M-94.72,368.35l-6.66-0.18c-0.6-0.92-1.37-1.65-2.31-2.19c-0.94-0.54-1.99-0.81-3.15-0.81h-0.72v-0.6h15.36v0.6h-0.66
				c-0.88,0-1.51,0.35-1.89,1.05C-95.13,366.92-95.12,367.62-94.72,368.35z M-96.82,364.62l11.16,19.68l-4.32,1.68l-13.62-21.36
				H-96.82z M-90.28,396.73v3.84h-4.32v-0.6c0.04,0,0.28,0,0.72,0c0.96,0,1.76-0.32,2.4-0.96c0.64-0.64,0.98-1.4,1.02-2.28H-90.28z
				 M-84.94,384.78v15.78h-5.52v-15.72L-84.94,384.78z M-75.4,364.62h4.02l-14.04,21.42l-2.46-0.6L-75.4,364.62z M-85.12,396.73
				h0.18c0.04,0.88,0.39,1.64,1.05,2.28s1.45,0.96,2.37,0.96h0.72v0.6h-4.32V396.73z M-77.62,368.35c0.44-0.76,0.45-1.48,0.03-2.16
				c-0.42-0.68-1.05-1.02-1.89-1.02h-0.72v-0.6h12.66v0.6h-0.72c-1.12,0-2.16,0.3-3.12,0.9s-1.72,1.3-2.28,2.1L-77.62,368.35z"/>
			<path d="M-46.24,368.4h-0.12c-0.04-0.92-0.39-1.69-1.05-2.31s-1.45-0.93-2.37-0.93h-0.72v-0.6h4.26V368.4z M-46.18,396.66v3.9
				h-4.32v-0.6c0.48,0,0.74,0,0.78,0c0.92,0,1.71-0.33,2.37-0.99s0.99-1.43,0.99-2.31H-46.18z M-40.84,364.56v36h-5.52v-36H-40.84z
				 M-30.4,364.56c4.08,0,7.59,0.72,10.53,2.16c2.94,1.44,5.2,3.51,6.78,6.21c1.58,2.7,2.37,5.91,2.37,9.63s-0.79,6.92-2.37,9.6
				c-1.58,2.68-3.84,4.75-6.78,6.21c-2.94,1.46-6.45,2.19-10.53,2.19h-12.96l-0.12-1.98c2.88,0,5.26,0,7.14,0c1.88,0,3.78,0,5.7,0
				c4.36,0,7.78-1.43,10.26-4.29c2.48-2.86,3.72-6.77,3.72-11.73c0-4.96-1.24-8.87-3.72-11.73c-2.48-2.86-5.9-4.29-10.26-4.29
				c-1.96,0-3.94,0-5.94,0s-4.5,0-7.5,0v-1.98H-30.4z"/>
			<path d="M-0.82,368.35h-0.12c-0.04-0.92-0.37-1.68-0.99-2.28s-1.41-0.9-2.37-0.9c-0.04,0-0.32,0-0.84,0v-0.6h4.98L-0.82,368.35z
				 M-0.82,396.73l0.66,3.84h-4.98v-0.6c0.52,0,0.8,0,0.84,0c0.96,0,1.75-0.32,2.37-0.96s0.95-1.4,0.99-2.28H-0.82z M4.52,364.56v36
				h-5.46v-36H4.52z M20.12,364.56v2.04H4.4v-2.04H20.12z M17.42,381.6v2.04H4.4v-2.04H17.42z M19.94,398.53l0.42,2.04H4.4v-2.04
				H19.94z M23.48,391.15l-2.94,9.42H11l1.98-2.04c1.88,0,3.45-0.31,4.71-0.93c1.26-0.62,2.31-1.49,3.15-2.61
				c0.84-1.12,1.52-2.4,2.04-3.84H23.48z M20.12,363.6v1.56l-6.66-0.6c1.24,0,2.54-0.11,3.9-0.33
				C18.72,364.02,19.64,363.81,20.12,363.6z M17.42,377.7v4.02h-3.84v-0.12c1.04,0,1.83-0.32,2.37-0.96
				c0.54-0.64,0.81-1.4,0.81-2.28v-0.66H17.42z M17.42,383.52v4.02h-0.66v-0.66c0-0.92-0.27-1.69-0.81-2.31
				c-0.54-0.62-1.33-0.93-2.37-0.93v-0.12H17.42z M20.12,366.43v4.92h-0.6v-0.78c0-1.16-0.34-2.11-1.02-2.85s-1.62-1.11-2.82-1.11
				v-0.18H20.12z"/>
			<path d="M39.2,363.73c1.04,0,2.03,0.04,2.97,0.12c0.94,0.08,1.8,0.17,2.58,0.27c0.78,0.1,1.47,0.22,2.07,0.36
				c0.6,0.14,1.06,0.27,1.38,0.39l-0.18,6.42h-0.66c0-1.72-0.59-3.07-1.77-4.05c-1.18-0.98-2.95-1.47-5.31-1.47
				c-2,0-3.67,0.51-5.01,1.53c-1.34,1.02-2.01,2.29-2.01,3.81c0,0.6,0.1,1.17,0.3,1.71s0.52,1.06,0.96,1.56
				c0.44,0.5,0.98,0.99,1.62,1.47l11.22,8.22c1.16,0.76,2.04,1.79,2.64,3.09c0.6,1.3,0.88,2.69,0.84,4.17
				c0,1.92-0.52,3.65-1.56,5.19c-1.04,1.54-2.44,2.74-4.2,3.6c-1.76,0.86-3.76,1.29-6,1.29c-1.36,0-2.73-0.12-4.11-0.36
				c-1.38-0.24-2.63-0.58-3.75-1.02c-1.12-0.44-2.04-0.96-2.76-1.56c-0.16-0.64-0.24-1.44-0.24-2.4c0-0.96,0.1-1.95,0.3-2.97
				c0.2-1.02,0.46-1.91,0.78-2.67h0.66c-0.16,1.8,0.12,3.38,0.84,4.74c0.72,1.36,1.77,2.41,3.15,3.15c1.38,0.74,3.01,1.09,4.89,1.05
				c2.44-0.04,4.33-0.63,5.67-1.77c1.34-1.14,2.01-2.61,2.01-4.41c0-1-0.23-1.9-0.69-2.7c-0.46-0.8-1.21-1.58-2.25-2.34l-10.86-7.92
				c-1.4-1-2.39-2.17-2.97-3.51c-0.58-1.34-0.83-2.71-0.75-4.11c0.08-1.72,0.57-3.25,1.47-4.59c0.9-1.34,2.11-2.39,3.63-3.15
				C35.62,364.11,37.32,363.73,39.2,363.73z M48.2,364.27v1.08h-4.98v-1.08H48.2z"/>
			<path d="M61.64,368.4h-0.18c-0.04-0.92-0.43-1.69-1.17-2.31s-1.65-0.93-2.73-0.93h-0.78v-0.6h4.86V368.4z M61.64,396.73v3.84
				h-4.86v-0.6c0.52,0,0.8,0,0.84,0c1.04,0,1.93-0.32,2.67-0.96s1.13-1.4,1.17-2.28H61.64z M66.86,364.56v36h-5.4v-36H66.86z
				 M66.68,368.4v-3.84h4.86l-0.06,0.6h-0.72c-1.08,0-1.99,0.31-2.73,0.93s-1.13,1.39-1.17,2.31H66.68z M66.68,396.73h0.18
				c0.04,0.88,0.43,1.64,1.17,2.28s1.65,0.96,2.73,0.96h0.72l0.06,0.6h-4.86V396.73z"/>
			<path d="M96.86,363.73c1.84,0,3.61,0.13,5.31,0.39c1.7,0.26,3.31,0.64,4.83,1.14s2.9,1.11,4.14,1.83l0.9,8.82h-0.54
				c-0.56-2.4-1.47-4.35-2.73-5.85s-2.83-2.6-4.71-3.3c-1.88-0.7-4.08-1.05-6.6-1.05c-2.96,0-5.53,0.68-7.71,2.04
				c-2.18,1.36-3.86,3.31-5.04,5.85s-1.77,5.57-1.77,9.09c0,3.4,0.58,6.36,1.74,8.88c1.16,2.52,2.8,4.46,4.92,5.82
				c2.12,1.36,4.6,2.04,7.44,2.04c1.52,0,2.98-0.19,4.38-0.57c1.4-0.38,2.72-0.97,3.96-1.77c1.24-0.8,2.34-1.8,3.3-3l0.06-7.74
				c0.04-0.76-0.19-1.34-0.69-1.74c-0.5-0.4-1.17-0.6-2.01-0.6h-0.84v-0.6h12.42v0.6h-0.78c-1.8,0-2.7,0.8-2.7,2.4v7.44
				c-0.88,1.16-2.15,2.32-3.81,3.48c-1.66,1.16-3.63,2.13-5.91,2.91c-2.28,0.78-4.84,1.17-7.68,1.17
				c-3.96-0.04-7.41-0.82-10.35-2.34c-2.94-1.52-5.23-3.68-6.87-6.48c-1.64-2.8-2.46-6.14-2.46-10.02c0-3.92,0.82-7.28,2.46-10.08
				c1.64-2.8,3.94-4.96,6.9-6.48S92.86,363.73,96.86,363.73z"/>
			<path d="M124.94,396.85v3.72h-4.5v-0.6h1.02c0.92,0,1.7-0.3,2.34-0.9c0.64-0.6,0.96-1.34,0.96-2.22H124.94z M124.76,363.66
				l4.5,5.28l0.06,31.62h-4.56v-29.58c0-2.04-0.18-4.48-0.54-7.32H124.76z M124.76,363.66l33.9,31.2l0.6,6.54l-33.84-31.32
				L124.76,363.66z M129.32,396.85c0,0.88,0.33,1.62,0.99,2.22s1.43,0.9,2.31,0.9h1.02v0.6h-4.5v-3.72H129.32z M154.76,368.28
				c-0.04-0.88-0.38-1.62-1.02-2.22s-1.42-0.9-2.34-0.9h-1.02v-0.6h4.5v3.72H154.76z M159.26,364.56v29.34
				c0,1.32,0.04,2.55,0.12,3.69c0.08,1.14,0.22,2.41,0.42,3.81h-0.54l-4.5-5.34v-31.5H159.26z M159.08,368.28v-3.72h4.5v0.6h-1.02
				c-0.88,0-1.65,0.3-2.31,0.9c-0.66,0.6-0.99,1.34-0.99,2.22H159.08z"/>
			<path d="M179.48,363.73c1.04,0,2.03,0.04,2.97,0.12c0.94,0.08,1.8,0.17,2.58,0.27c0.78,0.1,1.47,0.22,2.07,0.36
				c0.6,0.14,1.06,0.27,1.38,0.39l-0.18,6.42h-0.66c0-1.72-0.59-3.07-1.77-4.05c-1.18-0.98-2.95-1.47-5.31-1.47
				c-2,0-3.67,0.51-5.01,1.53c-1.34,1.02-2.01,2.29-2.01,3.81c0,0.6,0.1,1.17,0.3,1.71s0.52,1.06,0.96,1.56
				c0.44,0.5,0.98,0.99,1.62,1.47l11.22,8.22c1.16,0.76,2.04,1.79,2.64,3.09c0.6,1.3,0.88,2.69,0.84,4.17
				c0,1.92-0.52,3.65-1.56,5.19c-1.04,1.54-2.44,2.74-4.2,3.6c-1.76,0.86-3.76,1.29-6,1.29c-1.36,0-2.73-0.12-4.11-0.36
				c-1.38-0.24-2.63-0.58-3.75-1.02c-1.12-0.44-2.04-0.96-2.76-1.56c-0.16-0.64-0.24-1.44-0.24-2.4c0-0.96,0.1-1.95,0.3-2.97
				c0.2-1.02,0.46-1.91,0.78-2.67h0.66c-0.16,1.8,0.12,3.38,0.84,4.74c0.72,1.36,1.77,2.41,3.15,3.15c1.38,0.74,3.01,1.09,4.89,1.05
				c2.44-0.04,4.33-0.63,5.67-1.77c1.34-1.14,2.01-2.61,2.01-4.41c0-1-0.23-1.9-0.69-2.7c-0.46-0.8-1.21-1.58-2.25-2.34L173,380.23
				c-1.4-1-2.39-2.17-2.97-3.51c-0.58-1.34-0.83-2.71-0.75-4.11c0.08-1.72,0.57-3.25,1.47-4.59c0.9-1.34,2.11-2.39,3.63-3.15
				C175.9,364.11,177.6,363.73,179.48,363.73z M188.48,364.27v1.08h-4.98v-1.08H188.48z"/>
			<path d="M-308.7,472.57v-44.18h4.1v17.78c1.72-2.11,3.64-3.69,5.77-4.73c2.13-1.04,4.46-1.57,7-1.57c4.51,0,8.36,1.64,11.55,4.91
				c3.19,3.27,4.79,7.24,4.79,11.91c0,4.61-1.61,8.54-4.83,11.81c-3.22,3.26-7.09,4.89-11.62,4.89c-2.6,0-4.95-0.56-7.05-1.67
				c-2.11-1.11-3.97-2.78-5.59-5.01v5.86H-308.7z M-292.3,469.43c2.28,0,4.38-0.56,6.31-1.68s3.46-2.7,4.6-4.73
				c1.14-2.03,1.71-4.18,1.71-6.45s-0.58-4.42-1.72-6.47c-1.15-2.05-2.69-3.65-4.63-4.79s-4.01-1.71-6.21-1.71
				c-2.24,0-4.37,0.57-6.39,1.71s-3.57,2.68-4.65,4.61s-1.62,4.11-1.62,6.53c0,3.69,1.21,6.78,3.64,9.26
				S-295.84,469.43-292.3,469.43z"/>
			<path d="M-266.62,427.57c0.93,0,1.73,0.33,2.39,1c0.66,0.66,0.99,1.46,0.99,2.4c0,0.92-0.33,1.71-0.99,2.37
				c-0.66,0.66-1.46,1-2.39,1c-0.91,0-1.7-0.33-2.36-1c-0.66-0.66-0.99-1.46-0.99-2.37c0-0.94,0.33-1.74,0.99-2.4
				C-268.32,427.9-267.53,427.57-266.62,427.57z M-268.65,440.69h4.1v31.88h-4.1V440.69z"/>
			<path d="M-256.03,428.39h4.1v18.02c1.66-2.19,3.49-3.82,5.48-4.91s4.15-1.63,6.47-1.63c2.38,0,4.5,0.61,6.34,1.82
				s3.21,2.84,4.09,4.88s1.32,5.24,1.32,9.59v16.41h-4.1v-15.21c0-3.67-0.15-6.12-0.44-7.35c-0.51-2.11-1.43-3.7-2.77-4.76
				c-1.34-1.06-3.09-1.6-5.26-1.6c-2.48,0-4.7,0.82-6.67,2.46s-3.26,3.67-3.88,6.09c-0.39,1.56-0.59,4.45-0.59,8.67v11.69h-4.1
				V428.39z"/>
			<path d="M-192.6,461.99l3.46,1.82c-1.13,2.23-2.44,4.02-3.93,5.39c-1.49,1.37-3.16,2.41-5.01,3.12s-3.96,1.07-6.3,1.07
				c-5.2,0-9.27-1.7-12.2-5.11c-2.93-3.41-4.4-7.26-4.4-11.56c0-4.04,1.24-7.65,3.72-10.81c3.15-4.02,7.36-6.04,12.64-6.04
				c5.43,0,9.77,2.06,13.02,6.18c2.31,2.91,3.48,6.54,3.52,10.9h-28.68c0.08,3.7,1.26,6.74,3.55,9.1c2.29,2.37,5.11,3.55,8.48,3.55
				c1.62,0,3.2-0.28,4.74-0.85c1.54-0.56,2.84-1.31,3.92-2.25S-193.85,464.07-192.6,461.99z M-192.6,453.41
				c-0.55-2.19-1.34-3.94-2.39-5.24c-1.05-1.31-2.43-2.36-4.15-3.16c-1.72-0.8-3.53-1.2-5.43-1.2c-3.13,0-5.82,1.01-8.07,3.02
				c-1.64,1.46-2.88,3.66-3.73,6.59H-192.6z"/>
			<path d="M-167.31,428.39v4.01c-1.5-0.64-2.79-0.97-3.87-0.97c-0.8,0-1.46,0.16-1.99,0.48s-0.86,0.69-1,1.11
				c-0.14,0.42-0.21,1.54-0.21,3.35l0,4.31h6.65v3.54h-6.66l-0.02,28.33h-4.1v-28.33h-4.19v-3.54h4.19v-4.98
				c0-2.29,0.21-3.92,0.63-4.89c0.42-0.98,1.13-1.76,2.14-2.36c1.01-0.6,2.22-0.89,3.65-0.89
				C-170.76,427.57-169.17,427.84-167.31,428.39z"/>
			<path d="M-130.66,447.31l-3.25,2.02c-2.81-3.73-6.64-5.6-11.5-5.6c-3.88,0-7.11,1.25-9.67,3.75c-2.57,2.5-3.85,5.53-3.85,9.1
				c0,2.32,0.59,4.51,1.77,6.56c1.18,2.05,2.8,3.64,4.86,4.77s4.36,1.7,6.92,1.7c4.68,0,8.51-1.87,11.47-5.6l3.25,2.14
				c-1.52,2.29-3.57,4.07-6.14,5.34c-2.57,1.26-5.49,1.9-8.77,1.9c-5.04,0-9.22-1.6-12.54-4.8c-3.32-3.2-4.98-7.1-4.98-11.69
				c0-3.09,0.78-5.95,2.33-8.6s3.69-4.71,6.4-6.2c2.71-1.48,5.75-2.23,9.11-2.23c2.11,0,4.15,0.32,6.11,0.97s3.63,1.48,5,2.52
				C-132.78,444.39-131.62,445.71-130.66,447.31z"/>
			<path d="M-126.21,440.69h4.34l10.95,24.54l10.64-24.54h4.37l-19.01,43.54h-4.33l6.14-14.07L-126.21,440.69z"/>
			<path d="M-42.19,428.39v44.18h-4.04v-5.48c-1.72,2.09-3.65,3.66-5.79,4.72s-4.48,1.58-7.02,1.58c-4.51,0-8.36-1.64-11.56-4.91
				c-3.19-3.27-4.79-7.25-4.79-11.94c0-4.59,1.61-8.52,4.83-11.78c3.22-3.26,7.1-4.89,11.63-4.89c2.62,0,4.99,0.56,7.11,1.67
				s3.98,2.78,5.58,5.01v-18.16H-42.19z M-58.58,443.83c-2.28,0-4.39,0.56-6.32,1.68c-1.93,1.12-3.47,2.7-4.61,4.73
				c-1.14,2.03-1.71,4.17-1.71,6.44c0,2.24,0.58,4.39,1.73,6.44c1.15,2.05,2.7,3.64,4.64,4.78s4.02,1.71,6.25,1.71
				c2.24,0,4.37-0.57,6.38-1.7s3.55-2.66,4.64-4.59c1.08-1.93,1.62-4.11,1.62-6.53c0-3.69-1.21-6.77-3.64-9.25
				C-52.04,445.06-55.03,443.83-58.58,443.83z"/>
			<path d="M-6.07,461.99l3.46,1.82c-1.13,2.23-2.44,4.02-3.93,5.39c-1.49,1.37-3.16,2.41-5.01,3.12c-1.86,0.71-3.96,1.07-6.31,1.07
				c-5.2,0-9.27-1.7-12.2-5.11s-4.4-7.26-4.4-11.56c0-4.04,1.24-7.65,3.72-10.81c3.15-4.02,7.36-6.04,12.64-6.04
				c5.43,0,9.77,2.06,13.02,6.18c2.31,2.91,3.48,6.54,3.52,10.9h-28.68c0.08,3.7,1.26,6.74,3.55,9.1c2.29,2.37,5.11,3.55,8.48,3.55
				c1.62,0,3.2-0.28,4.74-0.85c1.53-0.56,2.84-1.31,3.92-2.25C-8.48,465.58-7.32,464.07-6.07,461.99z M-6.07,453.41
				c-0.55-2.19-1.34-3.94-2.39-5.24c-1.05-1.31-2.43-2.36-4.15-3.16c-1.72-0.8-3.53-1.2-5.43-1.2c-3.13,0-5.82,1.01-8.07,3.02
				c-1.64,1.46-2.88,3.66-3.73,6.59H-6.07z"/>
			<path d="M22.12,444.18l-2.64,2.72c-2.19-2.13-4.34-3.19-6.43-3.19c-1.33,0-2.47,0.44-3.42,1.32c-0.95,0.88-1.42,1.9-1.42,3.08
				c0,1.04,0.39,2.02,1.17,2.96c0.78,0.96,2.43,2.08,4.93,3.37c3.05,1.58,5.13,3.11,6.22,4.57c1.08,1.48,1.61,3.15,1.61,5.01
				c0,2.62-0.92,4.83-2.76,6.65s-4.14,2.72-6.89,2.72c-1.84,0-3.59-0.4-5.27-1.2c-1.67-0.8-3.06-1.9-4.15-3.31l2.58-2.93
				c2.09,2.36,4.32,3.54,6.67,3.54c1.64,0,3.04-0.53,4.2-1.58c1.15-1.05,1.73-2.29,1.73-3.72c0-1.17-0.38-2.22-1.14-3.13
				c-0.76-0.9-2.49-2.03-5.17-3.4c-2.88-1.48-4.83-2.95-5.87-4.39s-1.56-3.1-1.56-4.95c0-2.42,0.83-4.43,2.48-6.04
				s3.74-2.4,6.27-2.4C16.19,439.87,19.14,441.31,22.12,444.18z"/>
			<path d="M30.8,427.57c0.93,0,1.73,0.33,2.39,1s0.99,1.46,0.99,2.4c0,0.92-0.33,1.71-0.99,2.37s-1.46,1-2.39,1
				c-0.91,0-1.7-0.33-2.36-1s-0.99-1.46-0.99-2.37c0-0.94,0.33-1.74,0.99-2.4S29.89,427.57,30.8,427.57z M28.77,440.69h4.1v31.88
				h-4.1V440.69z"/>
			<path d="M68.88,440.69h4.1v25.4c0,4.47-0.39,7.74-1.17,9.81c-1.07,2.93-2.94,5.19-5.6,6.77s-5.85,2.37-9.58,2.37
				c-2.73,0-5.19-0.39-7.37-1.16c-2.18-0.77-3.95-1.81-5.32-3.12s-2.63-3.21-3.78-5.71h4.45c1.21,2.11,2.78,3.67,4.69,4.69
				c1.92,1.02,4.29,1.52,7.13,1.52c2.8,0,5.16-0.52,7.08-1.56c1.93-1.04,3.3-2.35,4.12-3.93c0.82-1.58,1.23-4.12,1.23-7.64v-1.64
				c-1.54,1.95-3.43,3.45-5.66,4.5s-4.59,1.57-7.1,1.57c-2.93,0-5.69-0.73-8.27-2.18s-4.58-3.41-5.98-5.87
				c-1.41-2.46-2.11-5.17-2.11-8.12s0.73-5.7,2.2-8.25s3.5-4.57,6.08-6.05c2.59-1.48,5.32-2.23,8.2-2.23c2.38,0,4.61,0.49,6.67,1.48
				s4.05,2.61,5.97,4.88V440.69z M56.78,443.83c-2.32,0-4.48,0.56-6.47,1.68s-3.55,2.68-4.69,4.66s-1.7,4.13-1.7,6.43
				c0,3.5,1.17,6.39,3.52,8.67s5.38,3.43,9.11,3.43c3.77,0,6.8-1.13,9.1-3.4s3.44-5.24,3.44-8.94c0-2.4-0.53-4.55-1.58-6.43
				s-2.55-3.37-4.48-4.47S59,443.83,56.78,443.83z"/>
			<path d="M81.77,440.69h4.1v5.71c1.64-2.19,3.46-3.82,5.45-4.91s4.16-1.63,6.5-1.63c2.38,0,4.5,0.61,6.34,1.82
				s3.21,2.84,4.09,4.89s1.32,5.24,1.32,9.58v16.41h-4.1v-15.21c0-3.67-0.15-6.12-0.46-7.35c-0.48-2.11-1.39-3.7-2.74-4.76
				s-3.11-1.6-5.27-1.6c-2.48,0-4.7,0.82-6.67,2.46s-3.26,3.67-3.88,6.09c-0.39,1.58-0.59,4.47-0.59,8.67v11.69h-4.1V440.69z"/>
			<path d="M134.38,444.18l-2.64,2.72c-2.19-2.13-4.34-3.19-6.43-3.19c-1.33,0-2.47,0.44-3.42,1.32c-0.95,0.88-1.42,1.9-1.42,3.08
				c0,1.04,0.39,2.02,1.17,2.96c0.78,0.96,2.43,2.08,4.93,3.37c3.05,1.58,5.13,3.11,6.22,4.57c1.08,1.48,1.61,3.15,1.61,5.01
				c0,2.62-0.92,4.83-2.76,6.65s-4.14,2.72-6.89,2.72c-1.84,0-3.59-0.4-5.27-1.2c-1.67-0.8-3.06-1.9-4.15-3.31l2.58-2.93
				c2.09,2.36,4.32,3.54,6.67,3.54c1.64,0,3.04-0.53,4.2-1.58c1.15-1.05,1.73-2.29,1.73-3.72c0-1.17-0.38-2.22-1.14-3.13
				c-0.76-0.9-2.49-2.03-5.17-3.4c-2.88-1.48-4.83-2.95-5.87-4.39s-1.56-3.1-1.56-4.95c0-2.42,0.83-4.43,2.48-6.04
				s3.74-2.4,6.27-2.4C128.46,439.87,131.41,441.31,134.38,444.18z"/>
		</g>
	</g>
</g>
</svg>
